<?xml version="1.0" encoding="utf-8"?>
<!-- Generator: Adobe Illustrator 19.2.0, SVG Export Plug-In . SVG Version: 6.00 Build 0)  -->
<svg version="1.1" id="Layer_1" xmlns="http://www.w3.org/2000/svg" xmlns:xlink="http://www.w3.org/1999/xlink" x="0px" y="0px"
	 viewBox="0 0 51 23" style="enable-background:new 0 0 51 23;" xml:space="preserve">
<style type="text/css">
	.st0{fill:#FFFFFF;}
	.st1{fill:#666666;}
	.st2{fill:none;stroke:#627B9F;stroke-linecap:round;stroke-linejoin:round;}
</style>
<g>
	<g id="XMLID_1_">
		<g>
			<path class="st0" d="M18.5,7.5l2.9,7.9h1.4l2.9-7.9h-1.4L22.8,12l-0.7,2.2L21.4,12l-1.5-4.5H18.5z M12.6,15.4l-3.3-4.7l3.1-3.3
				h-1.7l-3.5,3.8V7.5H6v7.9h1.3v-2.8l1-1l2.6,3.8H12.6z M15.2,14.4c-0.3,0-0.6-0.1-0.8-0.3c-0.2-0.2-0.3-0.6-0.3-1h-1.3v0.2
				c0,0.3,0.1,0.7,0.2,0.9c0.1,0.3,0.3,0.5,0.4,0.7c0.2,0.2,0.4,0.4,0.7,0.5c0.3,0.1,0.6,0.2,1,0.2c0.4,0,0.7,0,1-0.1
				c0.3-0.1,0.6-0.3,0.8-0.5c0.2-0.2,0.3-0.5,0.5-0.8c0.1-0.3,0.1-0.8,0.1-1.3V7.5h-1.3v5.4c0,0.2,0,0.4,0,0.6
				c0,0.2-0.1,0.3-0.2,0.5c-0.1,0.1-0.2,0.2-0.3,0.3C15.6,14.4,15.4,14.4,15.2,14.4z M50.5,2.5v18c0,1.1-0.9,2-2,2H2.6
				c-1.1,0-2-0.9-2-2v-18c0-1.1,0.9-2,2-2h45.9C49.6,0.6,50.5,1.5,50.5,2.5z M44.8,10.7c0.1-0.1,0-0.2-0.1-0.2l-3.9,0
				c-0.1,0-0.2,0.1-0.1,0.2l2,3c0.1,0.1,0.2,0.1,0.3,0L44.8,10.7z"/>
			<path class="st1" d="M44.7,10.5c0.1,0,0.2,0.1,0.1,0.2l-2,3c0,0.1-0.2,0.1-0.3,0l-2-3c-0.1-0.1,0-0.2,0.1-0.2L44.7,10.5z"/>
			<polygon points="25.8,7.5 22.8,15.4 21.4,15.4 18.5,7.5 19.9,7.5 21.4,12 22.1,14.1 22.8,12 24.4,7.5 			"/>
			<path d="M14.4,14.1c0.2,0.2,0.4,0.3,0.8,0.3c0.2,0,0.4,0,0.5-0.1c0.1-0.1,0.3-0.2,0.3-0.3c0.1-0.1,0.1-0.3,0.2-0.5
				c0-0.2,0-0.4,0-0.6V7.5h1.3v5.4c0,0.5,0,0.9-0.1,1.3c-0.1,0.4-0.3,0.6-0.5,0.8c-0.2,0.2-0.4,0.4-0.8,0.5c-0.3,0.1-0.6,0.1-1,0.1
				c-0.4,0-0.7,0-1-0.2c-0.3-0.1-0.5-0.3-0.7-0.5c-0.2-0.2-0.3-0.4-0.4-0.7c-0.1-0.3-0.2-0.6-0.2-0.9v-0.2h1.3
				C14.2,13.5,14.3,13.9,14.4,14.1z"/>
			<polygon points="9.3,10.8 12.6,15.4 11,15.4 8.3,11.6 7.3,12.6 7.3,15.4 6,15.4 6,7.5 7.3,7.5 7.3,11.3 10.8,7.5 12.4,7.5 			"/>
		</g>
		<g>
			<path class="st2" d="M48.5,22.5H2.6c-1.1,0-2-0.9-2-2v-18c0-1.1,0.9-2,2-2h45.9c1.1,0,2,0.9,2,2v18
				C50.5,21.6,49.6,22.5,48.5,22.5z"/>
		</g>
	</g>
</g>
</svg>
